<?xml version="1.0" encoding="UTF-8"?>
<svg id="_Шар_2" data-name="Шар 2" xmlns="http://www.w3.org/2000/svg" width="512" height="512" viewBox="0 0 512 512">
  <defs>
    <style>
      .cls-1, .cls-2 {
        stroke-linecap: round;
        stroke-linejoin: round;
      }

      .cls-1, .cls-2, .cls-3 {
        stroke:rgb(0, 0, 0);
        stroke-width: 8px;
      }

      .cls-2 {
        fill: none;
      }

      .cls-3 {
        stroke-miterlimit: 10;
      }
    </style>
  </defs>
  <path class="cls-2" d="m127.48,53.94h305.46c7.46,0,13.5,6.05,13.5,13.5v166.75c0,7.46-6.05,13.5-13.5,13.5H157.03l-35.66,27.47.63-27.47h-36.75c-7.46,0-13.5-6.05-13.5-13.5V67.44c0-7.46,6.05-13.5,13.5-13.5h18.81"/>
  <line class="cls-2" x1="120.61" y1="314.44" x2="149.71" y2="314.44"/>
  <line class="cls-2" x1="365.93" y1="314.44" x2="395.35" y2="314.44"/>
  <line class="cls-2" x1="342.12" y1="387.51" x2="362.66" y2="399.31"/>
  <path class="cls-2" d="m225.14,355.59c1.57,1.02,3.18,1.98,4.85,2.86l4.15,1.68.25,16.16,44.44-.5-.25-13.91,5.54-1.43c21.9-9.63,37.18-31.52,37.18-56.98,0-34.36-27.86-62.22-62.22-62.22s-62.22,27.86-62.22,62.22c0,10.03,2.38,19.5,6.6,27.89"/>
  <rect class="cls-2" x="222.7" y="376.78" width="69.54" height="21.44" rx="1.4" ry="1.4"/>
  <rect class="cls-2" x="235.91" y="398.23" width="46.37" height="17.6" rx="1.05" ry="1.05"/>
  <path class="cls-2" d="m99.18,84.45v54.08h20.37s11.54-4.51,11.54-27.04-11.54-27.04-11.54-27.04h-20.37Z"/>
  <line class="cls-2" x1="154.34" y1="84.09" x2="154.34" y2="138.53"/>
  <path class="cls-2" d="m177.27,84.09v54.08h20.37s11.54-4.51,11.54-27.04-11.54-27.04-11.54-27.04h-20.37Z"/>
  <polyline class="cls-2" points="251.8 84.09 268.51 105.7 268.51 138.53"/>
  <line class="cls-2" x1="284.83" y1="84.09" x2="268.51" y2="104.49"/>
  <circle class="cls-2" cx="334.55" cy="112.33" r="28.24"/>
  <path class="cls-2" d="m384.17,84.09v41.65s2.86,12.43,17.36,12.43,17.36-12.43,17.36-12.43v-41.65"/>
  <line class="cls-2" x1="139.01" y1="161" x2="139.01" y2="222"/>
  <polyline class="cls-2" points="169.1 161 139.01 191.4 169.55 221.65"/>
  <line class="cls-2" x1="192.25" y1="222" x2="192.25" y2="165.13"/>
  <line class="cls-2" x1="192.25" y1="165.13" x2="223.29" y2="222"/>
  <line class="cls-2" x1="223.09" y1="165.13" x2="223.29" y2="222"/>
  <circle class="cls-2" cx="273.57" cy="192.79" r="28.24"/>
  <polyline class="cls-2" points="319.29 164.55 334.55 217.87 352.83 164.55 369.29 217.87 385.96 164.55"/>
  <line class="cls-3" x1="257.63" y1="329.12" x2="257.63" y2="371.93"/>
  <line class="cls-1" x1="242.14" y1="329.12" x2="272.8" y2="329.12"/>
  <line class="cls-2" x1="172.19" y1="387.51" x2="152.82" y2="401.15"/>
</svg>