<?xml version="1.0" encoding="UTF-8"?>
<svg id="_Шар_2" data-name="Шар 2" xmlns="http://www.w3.org/2000/svg" width="512" height="512" viewBox="0 0 512 512">
  <defs>
    <style>
      .cls-1 {
        fill: none;
        stroke:rgb(0, 0, 0);
        stroke-linecap: round;
        stroke-linejoin: round;
        stroke-width: 8px;
      }
    </style>
  </defs>
  <path class="cls-1" d="m364.65,280.88h34.37c3.99,9.03,14.9,9.49,23.93,5.5s13.12-14.54,9.13-23.56c-2.74-6.2-7.51-10.28-13.82-10.8v-4.12l-.45-156.04s15.9-7.19,16.29-16.92c.4-9.73-7.59-16.75-15.84-19.5-10.56-2.55-15.12,5.5-15.12,5.5H128.16h.04s-9.03-8.94-15.81-8.94c-9.87,0-17.87,8-17.87,17.87s8,17.87,17.87,17.87"/>
  <line class="cls-1" x1="113.08" y1="126.14" x2="113.08" y2="87.47"/>
  <path class="cls-1" d="m341.28,282.26l-208.95-1.37h-4.12c-4.89,8.57-15.62,9.56-24.19,4.67-8.57-4.89-11.55-15.81-6.66-24.38,3.36-5.88,9.4-9.28,15.72-9.15v-2.15s0-100.88,0-100.88"/>
  <path class="cls-1" d="m297.29,109.05s-15.12-15.12-28.87-19.25c-6.22-1.87-42.07-11.13-67.36-2.75-30.6,10.14-50.86,38.49-50.86,38.49,0,0,4.12,1.37,9.62,2.75s12.43.31,21.99,1.37c12.37,1.37,12.37,26.12,4.12,43.99-4.31,9.34-7.61,53.41,8.25,75.61,14.5,20.29,48.11,19.25,48.11,19.25v28.87s-52.24,5.5-74.23,35.74c-21.99,30.24-22.22,97.6-22.22,97.6"/>
  <path class="cls-1" d="m383.53,430.72s-1.01-52.24-17.51-90.73-82.48-42.61-82.48-42.61v-35.74s16.5-13.75,19.25-17.87,26.73-15.23,23.37-67.36c-2.75-42.61-13.75-52.24-13.75-52.24"/>
  <line class="cls-1" x1="330.44" y1="356.83" x2="343.01" y2="431.75"/>
  <line class="cls-1" x1="196.56" y1="355.11" x2="182.47" y2="430.72"/>
  <path class="cls-1" d="m246.43,388.79c0,10.25-8.31,18.56-18.56,18.56s-18.56-8.31-18.56-18.56,9-30.93,19.25-30.93,17.87,20.68,17.87,30.93Z"/>
  <path class="cls-1" d="m279.08,339.22c0,10.25-8.31,18.56-18.56,18.56s-18.56-8.31-18.56-18.56,9-30.93,19.25-30.93,17.87,20.68,17.87,30.93Z"/>
  <path class="cls-1" d="m310.7,390.08c0,10.25-8.31,18.56-18.56,18.56s-18.56-8.31-18.56-18.56,9-30.93,19.25-30.93,17.87,20.68,17.87,30.93Z"/>
  <polyline class="cls-1" points="383.53 343.16 407.95 317.31 409.36 334.49 431.95 317.31"/>
  <polyline class="cls-1" points="387.93 367.14 419.1 355.11 413.45 369.55 445.2 359.15"/>
  <polyline class="cls-1" points="141.42 345.43 117 319.58 115.59 336.77 93 319.58"/>
  <polyline class="cls-1" points="137.02 369.41 105.85 357.39 111.5 371.82 79.75 361.42"/>
  <polyline class="cls-1" points="219.62 160.6 249.18 160.6 219.62 191.55 249.18 191.55"/>
  <polyline class="cls-1" points="264.32 148.99 287.7 148.99 264.99 171.32 287.7 171.32"/>
  <polyline class="cls-1" points="218.14 231.82 230.62 218.33 241.96 231.82 251.24 218.33 264.99 231.82 274.61 218.33 287.7 231.82"/>
</svg>