<?xml version="1.0" encoding="UTF-8"?>
<svg id="Capa_1" data-name="Capa 1" xmlns="http://www.w3.org/2000/svg" width="512" height="512" viewBox="0 0 512 512">
  <defs>
    <style>
      .cls-1 {
        fill:rgb(0, 0, 0);
        stroke-width: 0px;
      }
    </style>
  </defs>
  <path class="cls-1" d="m242.38,44.1c-1.56-1.51-3.7-2.32-5.86-2.22-14.04.55-28.04,2.52-41.6,5.86l3.83,15.54c9.83-2.42,19.91-4.06,30.08-4.9v151.3H57.04c2.1-9.92,5-19.68,8.64-29.13l-14.92-5.76c-5.18,13.41-8.96,27.41-11.25,41.61-.38,2.32.29,4.67,1.81,6.46s3.74,2.82,6.09,2.82h189.42c4.42,0,8-3.58,8-8V49.87c0-2.18-.88-4.26-2.46-5.77Z"/>
  <path class="cls-1" d="m411.23,124.86l-12.8,9.61c25.13,33.43,38.41,73.26,38.41,115.2,0,2.55-.06,5.2-.19,8h-159.81V60.38c12.71,2.14,25.18,5.54,37.17,10.18l5.77-14.92c-16.02-6.19-32.84-10.38-49.98-12.42-2.31-.27-4.55.45-6.26,1.96-1.72,1.51-2.7,3.69-2.7,5.98v214.51c0,4.42,3.58,8,8,8h175.3c4.17,0,7.64-3.21,7.98-7.36.49-6.08.72-11.52.72-16.64,0-45.43-14.39-88.58-41.61-124.81Z"/>
  <path class="cls-1" d="m236.84,241.67H44.84c-4.42,0-8,3.58-8,8,0,11.18.89,22.37,2.65,33.28l15.8-2.54c-1.21-7.47-1.97-15.09-2.28-22.74h175.83v183.3c-15.5-1.28-30.72-4.42-45.38-9.36l-5.11,15.17c18.73,6.31,38.3,9.91,58.18,10.69.1,0,.21,0,.31,0,2.06,0,4.06-.8,5.54-2.23,1.58-1.51,2.46-3.59,2.46-5.77v-199.8c0-4.42-3.58-8-8-8Z"/>
  <path class="cls-1" d="m445.28,292.74c-1.5-1.94-3.82-3.07-6.28-3.07h-170.17c-4.42,0-8,3.58-8,8v150.51c0,2.29.98,4.46,2.69,5.98,1.48,1.31,3.37,2.02,5.31,2.02.31,0,.63-.02.95-.06,8.37-1,16.77-2.53,24.96-4.54l-3.83-15.54c-4.64,1.14-9.35,2.12-14.09,2.91v-133.29h151.66c-.55,1.82-1.14,3.64-1.74,5.45l15.16,5.11c1.86-5.5,3.5-11.1,4.85-16.64.59-2.38.05-4.91-1.47-6.85Z"/>
  <path class="cls-1" d="m187.2,78.52s-.02,0-.02,0c-11.19-8.4-24.45-12.84-38.34-12.84-2.41,0-4.86.18-7.36.5-7.8-15.94-21.27-28.58-37.82-35.26,6.59-6.99,14.87-12.5,23.98-15.93l-5.62-14.98c-11.5,4.31-21.94,11.29-30.23,20.16-1.92,2.06-3.62,4.14-5.21,6.25-3.2-.43-6.43-.74-9.74-.74C37.13,25.67,4.84,57.98,4.84,97.67s32.3,72,72,72c6.9,0,13.57-1.03,19.9-2.86,9.14,12.8,22.76,21.88,38.22,25.3,0,0,0,0,.02,0,4.64,1.02,9.31,1.54,13.87,1.54,15.23,0,30.02-5.49,41.63-15.44l.02-.02c14.2-12.19,22.35-29.89,22.35-48.54,0-20.27-9.34-38.91-25.63-51.15Zm-110.37,75.15c-30.87,0-56-25.12-56-56s25.13-56,56-56c.22,0,.42.03.63.03-3.13,6.95-4.87,13.47-5.83,18.75l15.74,2.87c.95-5.22,2.86-11.94,6.62-18.94,16.26,5.25,29.25,17.74,35.23,33.66.57,1.52,1.07,3.05,1.5,4.58.06.2.1.4.15.6.38,1.39.7,2.78.98,4.19.11.62.19,1.24.29,1.86.16,1.04.33,2.08.43,3.13.16,1.73.26,3.49.26,5.26,0,4.12-.5,8.39-1.5,12.7-5.78,24.78-27.99,43.3-54.5,43.3Zm53.93,20.45c-7.26-2.96-13.67-7.7-18.72-13.71,11.82-6.66,21.59-16.51,28.08-28.43l-9.36,42.14Zm65.41-52.45h-31.34l18.78-25.02c6.64,6.94,10.99,15.59,12.56,25.02Zm-25.36-34.64l-6.99,9.32-13.98,18.64-2.27-4.1h0c.4-2.15.73-4.32.93-6.53.22-2.24.34-4.48.34-6.7,0-2.65-.17-5.26-.45-7.83-.04-.38-.12-.74-.17-1.12-.29-2.31-.68-4.59-1.18-6.83,0-.06-.02-.11-.03-.18,8.58-.38,16.5,1.53,23.81,5.32Zm-24.43,90.58l6.79-30.58,20.37,23.76c-8.13,4.89-17.53,7.31-27.16,6.82Zm39.3-17.24l-19.45-22.7h29.93c-1.42,8.34-5.03,16.18-10.48,22.7Z"/>
  <rect class="cls-1" x="300.84" y="153.67" width="16" height="16"/>
  <rect class="cls-1" x="332.84" y="169.67" width="16" height="16"/>
  <rect class="cls-1" x="364.84" y="225.67" width="16" height="16"/>
  <rect class="cls-1" x="300.84" y="217.67" width="16" height="16"/>
  <rect class="cls-1" x="292.84" y="185.67" width="16" height="16"/>
  <rect class="cls-1" x="404.84" y="193.67" width="16" height="16"/>
  <rect class="cls-1" x="364.84" y="161.67" width="16" height="16"/>
  <rect class="cls-1" x="332.84" y="201.67" width="16" height="16"/>
  <rect class="cls-1" x="364.84" y="193.67" width="16" height="16"/>
  <path class="cls-1" d="m484.84,9.67c-20.85,0-40.7,5.42-58.58,14.75-1.56-3.55-3.68-6.95-6.57-9.84-10.87-10.86-30.91-5.25-33.17-4.58-2.57.78-4.58,2.78-5.36,5.35-.67,2.25-6.3,22.29,4.58,33.17,1.26,1.25,2.62,2.32,4,3.32-5.24,5.5-9.99,11.51-14.38,17.82-1.1-1.6-2.27-3.17-3.68-4.58-10.54-10.54-30.23-6.93-32.45-6.47-2.96.6-5.33,2.82-6.14,5.73-1.08,3.94-5.92,24.13,4.64,34.69,5.3,5.29,11.97,8.26,18.57,8.84-4.77,14.47-7.48,29.86-7.48,45.79h16c0-11.5,1.71-22.71,4.67-33.49,4.42,2.5,9.66,3.99,15.33,3.99,15.3,0,25.83-18.03,26.98-20.1,1.35-2.42,1.35-5.38,0-7.82-1.01-1.8-9.18-15.8-21.44-19.3,4.91-6.74,10.4-12.98,16.4-18.64,4.08,8.96,14.19,15.34,26.06,15.34,15.3,0,25.83-18.03,26.98-20.1,1.35-2.42,1.35-5.38,0-7.82-.69-1.23-4.79-8.16-11.22-13.54,11.54-4.19,23.73-6.54,36.23-6.54v-16h0Zm-120.02,77.54c-.64,1.26-1.18,2.57-1.78,3.85-.46.12-.92.22-1.35.42-3.02,1.37-8.32.53-12.62-3.77-2.15-2.15-2.28-8.46-1.52-14.01,4.92-.22,10.5.37,12.83,2.7,3.02,3.02,4.71,7,4.42,10.4,0,.14.02.27.02.41Zm30.43,12.96c-3.11,4.07-7.34,8-10.42,8-4.11,0-7.87-1.55-10.06-3.66,1.66-3.98,3.51-7.85,5.53-11.63,1.44-.43,2.95-.7,4.53-.7,3.09,0,7.3,3.93,10.42,8Zm6.83-59.68c-1.7-.7-3.42-1.68-5.02-3.28-2.16-2.16-2.29-7.86-1.53-12.83,4.7-.7,10.58-.75,12.84,1.51,2,2,3.34,4.42,3.99,6.82-3.54,2.42-6.97,5.02-10.29,7.78Zm30.75,17.18c-6.39,0-12-3.74-12.02-7.54.02-.14.13-.8.14-.94.1-.8.04-1.59-.1-2.37,1.74-1.22,3.52-2.39,5.31-3.53,2.03-.98,4.27-1.62,6.66-1.62,3.09,0,7.3,3.93,10.42,8-3.11,4.07-7.34,8-10.42,8Z"/>
  <path class="cls-1" d="m187.14,323.86c1.12-3.26,1.7-6.69,1.7-10.18,0-17.65-14.35-32-32-32-9.75,0-18.83,4.54-24.8,11.9-6.7-3.66-14.72-4.82-22.23-3.11-7.07-5.7-15.78-8.79-24.97-8.79-22.06,0-40,17.94-40,40-17.65,0-32,14.35-32,32,0,5.42,1.34,10.61,3.87,15.22-7.35,5.97-11.87,15.03-11.87,24.78,0,17.65,14.35,32,32,32,11.57,0,21.74-6.18,27.35-15.41l12.95,25.9,7.81,46.82c.64,3.86,3.98,6.69,7.89,6.69h64c4.42,0,8-3.58,8-8v-47.34l7.89-47.34c.07-.44.11-.88.11-1.32,22.06,0,40-14.35,40-32,0-13.57-10.6-25.22-25.7-29.82Zm-14.3,45.82c-1.89,0-3.86-.23-6.38-.75-2.35-.49-4.81.11-6.67,1.63s-2.95,3.79-2.95,6.2v8.26l-7.89,47.34c-.07.43-.11.87-.11,1.31v40h-49.22l-6.88-41.32c-.14-.78-.38-1.54-.74-2.26l-24-48c-1.36-2.7-4.13-4.42-7.16-4.42h-1.6c-2.62,0-5.07,1.28-6.56,3.42-1.5,2.15-1.85,4.9-.94,7.34.75,2.05,1.1,3.71,1.1,5.23,0,8.82-7.18,16-16,16s-16-7.18-16-16c0-6.62,4.22-12.63,10.5-14.94,2.61-.97,4.53-3.21,5.08-5.94.54-2.73-.37-5.54-2.41-7.43-3.34-3.09-5.17-7.24-5.17-11.68,0-8.82,7.18-16,16-16,1.6,0,3.29.34,5.29,1.06,2.45.88,5.17.51,7.31-.98,2.14-1.5,3.4-3.94,3.4-6.54v-9.53c0-13.23,10.77-24,24-24,6.52,0,12.64,2.61,17.22,7.34,2.26,2.35,5.74,3.09,8.77,1.85,6.22-2.54,13.19-.89,17.7,3.98,1.9,2.04,4.72,2.95,7.44,2.4,2.73-.54,4.98-2.47,5.94-5.08,2.31-6.27,8.31-10.49,14.94-10.49,8.82,0,16,7.18,16,16,0,3.93-1.5,7.74-4.24,10.73-2.1,2.3-2.67,5.61-1.48,8.48,1.2,2.87,3.96,4.79,7.07,4.91,12.48.49,22.65,7.62,22.65,15.88,0,8.67-10.99,16-24,16Z"/>
  <path class="cls-1" d="m430.84,321.67h-8.38c-27.86,0-50.95,20.9-53.73,48.62l-3.46,34.58-16.2,9.72-2.58-2.58c-1.5-1.5-3.53-2.34-5.66-2.34h-4c-15.44,0-28,12.56-28,28,0,14.17,10.58,25.91,24.25,27.75,1.84,13.67,13.58,24.25,27.75,24.25,15.44,0,28-12.56,28-28v-4c0-2.12-.84-4.16-2.34-5.66l-2.58-2.58,9.7-16.16,42.13-3.83c27.99-2.54,49.1-25.66,49.1-53.77,0-29.78-24.22-54-53.99-54Zm-62.66,134.66l4.66,4.66v.69c0,6.62-5.38,12-12,12s-12-5.38-12-12v-4c0-4.42-3.58-8-8-8h-4c-6.62,0-12-5.38-12-12s5.38-12,12-12h.69l4.66,4.66c2.59,2.6,6.62,3.09,9.78,1.2l19.64-11.78,3.58,3.58,3.58,3.58-11.78,19.64c-1.89,3.15-1.39,7.18,1.2,9.78Zm66.1-42.82l-42.44,3.86-10.67-10.67,3.49-34.81c1.95-19.5,18.2-34.21,37.8-34.21h8.38c20.94,0,37.99,17.05,37.99,38,0,19.78-14.85,36.04-34.55,37.83Z"/>
  <path class="cls-1" d="m97.36,74.36c-5.66,6.78-14.97,9.17-22.64,5.81-6.49-2.85-10.9-9.54-11.23-17.03l-15.98.71c.6,13.54,8.76,25.69,20.78,30.97,4.38,1.92,9.02,2.84,13.66,2.84,10.35,0,20.65-4.61,27.7-13.04l-12.28-10.26Z"/>
  <path class="cls-1" d="m408.08,358.98c-8.02,5.92-11.07,15.36-11.25,22.23l16,.42c.02-.66.29-6.48,4.75-9.77,4.1-3.02,10.06-2.91,14.84.24l8.82-13.35c-10.36-6.85-23.7-6.75-33.16.23Z"/>
  <path class="cls-1" d="m113.5,369.09c-9.56-9.44-23.71-15.42-36.66-15.42v16c13.97,0,32,11.64,32,24v32h16v-32c0-9.62,2.34-32,24-32v-16c-16.78,0-29.08,8.66-35.34,23.42Z"/>
</svg>