<?xml version="1.0" encoding="UTF-8"?>
<svg id="_Шар_1" data-name="Шар 1" xmlns="http://www.w3.org/2000/svg" width="512" height="512" viewBox="0 0 50 50">
  <defs>
    <style>
      .cls-1 {
        fill:rgb(0, 0, 0);
        stroke-width: 0px;
      }
    </style>
  </defs>
  <path class="cls-1" d="m12.37,5.49c.7-2.12,1.91-3,4.12-3,1.4,0,2.81.05,4.21-.01,2.06-.1,3.69.87,4.3,3.01,1.77,0,3.54-.01,5.32,0,1.68.02,3.12,1.11,3.55,2.73.12.43.15.89.15,1.34,0,9.17,0,18.34,0,27.52v.58h1.5c0-.69,0-1.38,0-2.06,0-1.61.94-2.79,2.44-3.09,1.42-.28,2.73.47,3.37,1.91.06.12.25.24.39.26.27.05.56,0,.84.03,1.1.15,1.91,1.07,1.94,2.18,0,.25,0,.49,0,.79.98-.06,1.88.04,2.51.86.35.45.51.96.48,1.53-.08,1.34-.96,1.98-2.99,2.13,0,.24,0,.48,0,.72-.03,1.26-.98,2.21-2.23,2.25-.11,0-.22.01-.33,0-.36-.05-.56.05-.72.44-.51,1.28-1.91,2.01-3.22,1.76-1.44-.28-2.45-1.43-2.48-2.87-.02-.75,0-1.5,0-2.28h-1.5c0,.4,0,.82,0,1.23,0,2.38-1.59,3.97-3.95,3.97-7.84,0-15.69,0-23.53,0-2.37,0-3.96-1.59-3.96-3.96,0-11.34,0-22.68,0-34.02,0-2.37,1.59-3.95,3.96-3.96,1.93,0,3.86,0,5.82,0Zm3.69,32.17c0-.27,0-.52,0-.77.03-1.1.82-2,1.9-2.17.29-.05.6,0,.88-.04.14-.02.33-.14.39-.27.61-1.41,1.94-2.19,3.32-1.92,1.51.29,2.47,1.48,2.48,3.06,0,.7,0,1.39,0,2.1h4.49V11.47c0-1.43-.08-1.5-1.51-1.5-.27,0-.41.1-.56.31-.6.84-1.44,1.28-2.47,1.28-4.46,0-8.92,0-13.38,0-.91,0-1.72-.32-2.25-1.04-.35-.47-.72-.58-1.25-.55-.8.04-1.03.24-1.03,1.03,0,10.3,0,20.59,0,30.89,0,.8.23,1.04,1.02,1.04,2.5,0,4.99,0,7.49,0,.15,0,.3-.01.44-.02v-.71c-2.01-.13-2.93-.83-2.96-2.23-.02-1.43.89-2.16,2.99-2.32Zm3.32,8.27c-.04-.68-.4-.81-.94-.76-.56.05-1.06-.15-1.53-.48-.2-.14-.46-.25-.7-.25-2.68-.02-5.36-.01-8.04-.01-1.72,0-2.59-.87-2.59-2.58,0-9.14,0-18.28,0-27.42,0-1.15,0-2.31,0-3.46,0-1.56.91-2.48,2.46-2.48.17,0,.34,0,.47,0,.14-.52.28-.99.42-1.5-.79,0-1.56,0-2.34,0-1.59,0-2.5.9-2.5,2.48,0,11.32,0,22.65,0,33.97,0,1.59.91,2.49,2.5,2.49,4.12,0,8.23,0,12.35,0h.46Zm-1.11-35.86c.19,0,.37,0,.56,0,2.04,0,4.08,0,6.13,0,.91,0,1.59-.69,1.58-1.56,0-.85-.68-1.5-1.58-1.52-.19,0-.37,0-.56,0-.56-.02-.81-.26-.86-.83-.11-1.31-1.03-2.16-2.35-2.17-1.67,0-3.34,0-5,0-1.36,0-2.26.84-2.37,2.19-.05.53-.3.79-.83.8-.47.01-.94-.01-1.4,0-.67.03-1.15.37-1.4.99-.41,1.01.36,2.08,1.5,2.09,2.2.01,4.4,0,6.59,0Zm9.82-1.61c.08,0,.18.02.29.02,1.83.03,2.64.85,2.64,2.67,0,8.65,0,17.31,0,25.96v.54h1.5v-.45c0-9.25,0-18.49,0-27.74,0-.11,0-.22,0-.33-.05-1.1-.9-2.05-1.99-2.13-.94-.06-1.89-.01-2.85-.01.14.5.27.97.41,1.47Zm-7.54,31.48c0,1.44,0,2.87,0,4.31,0,.99.61,1.68,1.49,1.68.88,0,1.5-.68,1.5-1.67,0-2.89,0-5.77,0-8.66,0-.98-.63-1.66-1.52-1.65-.87.01-1.47.68-1.48,1.64,0,1.45,0,2.9,0,4.35Zm16.47,0c0,1.44,0,2.87,0,4.31,0,.99.61,1.68,1.49,1.68.88,0,1.5-.68,1.5-1.67,0-2.89,0-5.77,0-8.66,0-.98-.63-1.66-1.52-1.65-.87.01-1.47.68-1.48,1.64,0,1.45,0,2.9,0,4.35Zm-11.96.71h10.42v-1.44h-10.42v1.44Zm-.36,5.27c1.92,0,3.82.02,5.72,0,.96-.01,1.82-.71,2.01-1.66.13-.66.1-1.35.14-2.05h-1.5c-.26,1.55-1.06,2.22-2.61,2.22-.56,0-1.12,0-1.68,0h-1.65c-.15.53-.27.99-.41,1.49Zm-5.67-9.73c-.28,0-.51-.01-.74,0-.44.03-.73.3-.74.75-.01,1.99-.01,3.99,0,5.98,0,.44.29.72.73.75.24.02.49,0,.74,0v-7.48Zm22.49,7.49c.27,0,.49.01.7,0,.47-.03.76-.3.77-.77.01-1.98,0-3.95,0-5.93,0-.41-.21-.69-.62-.76-.28-.05-.57,0-.86,0v7.47Zm-12.01-1.46h-4.46v.71c1.27,0,2.51.01,3.76,0,.4,0,.64-.27.7-.7Zm-13.47-1.56v-1.44c-1.05-.09-1.49.13-1.49.72,0,.58.43.8,1.49.72Zm28.48-1.44v1.44c1.03.07,1.46-.15,1.46-.73,0-.58-.45-.81-1.46-.71Z"/>
  <path class="cls-1" d="m21.68,17.47c-1.82,0-3.65,0-5.47,0-.53,0-.86-.27-.88-.7-.03-.45.31-.79.84-.79.89,0,1.78,0,2.67,0,2.74,0,5.49,0,8.23,0,.24,0,.56.04.69.19.17.19.27.53.23.78-.06.38-.4.52-.78.52-1.31,0-2.62,0-3.93,0-.53,0-1.06,0-1.59,0Z"/>
  <path class="cls-1" d="m21.67,21.97c-1.82,0-3.65,0-5.47,0-.61,0-1-.44-.85-.94.12-.39.42-.56.82-.56,3.68,0,7.36,0,11.04,0,.51,0,.84.32.83.76,0,.44-.33.73-.85.74-1.84,0-3.68,0-5.52,0Z"/>
  <path class="cls-1" d="m21.64,26.46c-1.79,0-3.59,0-5.38-.01-.25,0-.56-.08-.71-.24-.15-.16-.25-.51-.17-.71.08-.22.36-.38.58-.52.1-.06.27-.02.41-.02,3.54,0,7.08,0,10.62,0,.09,0,.19,0,.28,0,.45.03.75.32.76.73,0,.42-.3.75-.78.76-.87.01-1.75,0-2.62,0-1,0-2,0-2.99,0Z"/>
  <path class="cls-1" d="m21.7,30.95c-1.81,0-3.62,0-5.43,0-.6,0-.94-.26-.95-.73-.02-.48.34-.77.96-.77,3.6,0,7.2,0,10.81,0,.61,0,.94.26.96.72.02.48-.34.77-.96.77-1.79,0-3.59,0-5.38,0Z"/>
  <path class="cls-1" d="m10.7,17.89c.64-.85,1.16-1.6,1.75-2.3.16-.19.51-.33.76-.31.2.02.47.28.54.48.07.21,0,.54-.14.73-.69.98-1.42,1.93-2.15,2.89-.34.45-.8.48-1.21.09-.47-.45-.93-.92-1.39-1.39-.36-.38-.37-.8-.04-1.12.32-.31.74-.29,1.12.08.25.25.48.53.76.86Z"/>
  <path class="cls-1" d="m10.7,23.88c.61-.81,1.13-1.51,1.66-2.2.36-.48.77-.58,1.15-.31.38.28.41.71.05,1.19-.68.91-1.36,1.82-2.05,2.73-.41.54-.85.57-1.33.1-.43-.42-.86-.85-1.29-1.29-.39-.4-.41-.83-.07-1.15.32-.31.74-.29,1.12.08.25.25.47.53.76.86Z"/>
  <path class="cls-1" d="m10.71,29.85c.61-.82,1.16-1.55,1.72-2.28.31-.41.75-.47,1.1-.2.33.26.4.67.12,1.04-.73.99-1.46,1.98-2.21,2.95-.33.43-.78.45-1.17.08-.49-.46-.96-.94-1.42-1.42-.34-.36-.34-.77-.04-1.08.3-.31.73-.31,1.08.02.27.26.51.54.82.88Z"/>
</svg>