<?xml version="1.0" encoding="UTF-8"?>
<svg id="_Шар_1" data-name="Шар 1" xmlns="http://www.w3.org/2000/svg" width="512" height="512" viewBox="0 0 512 512">
  <defs>
    <style>
      .cls-1 {
        fill:rgb(0, 0, 0);
        stroke-width: 0px;
      }
    </style>
  </defs>
  <path class="cls-1" d="m0,277c5.1-8.28,12.63-11.11,22.07-10.19,4.12.4,8.31.07,12.28.07,1.3-3.49,2.05-6.99,3.79-9.88,3.1-5.16,7.97-7.94,14.11-8.04,5.33-.09,10.67-.08,16-.03,10.97.11,18.14,7.11,18.35,18.1.18,9.16.12,18.33.19,27.49,0,.3.21.6.43,1.18h24.21c-1.3-2.03-2.37-3.74-3.47-5.43-16.77-25.93-29.76-53.41-35.52-84.05-12.87-68.47,28.82-132.96,96.34-146.49,46.53-9.33,86.1,4.92,118.05,40.07,1.1,1.21,2.14,2.49,4.45,5.19.97-1.8,1.47-3.28,2.42-4.39,44.89-52.75,123.07-58.48,175.21-12.86,1.13.99,2.3,1.94,3.3,3.05,3.01,3.33,3.16,7.35.48,10.38-2.8,3.18-6.96,3.34-10.74.44-5.94-4.55-11.55-9.64-17.89-13.54-45.78-28.1-103.95-18.69-139,22.03-2.72,3.16-6.3,6.28-10.11,7.62-7.46,2.62-13.41-.83-18.34-6.73-17.12-20.48-38.97-32.77-65.22-37.58-56.85-10.41-114.77,30.17-124.46,87.19-4.96,29.19.66,56.88,12.98,83.06,7.97,16.94,18.48,32.68,27.78,48.99,1.51,2.65,3.51,3.41,6.51,3.39,19.83-.13,39.66-.07,59.5-.06,6.26,0,9.75,2.69,9.75,7.44,0,4.82-3.42,7.5-9.72,7.51-33.66.01-67.33,0-100.99.01-1.8,0-3.6,0-5.73,0v30.93h166.24v-30.93c-7.54,0-14.97.11-22.4-.03-6.25-.12-9.95-5.09-7.75-10.31,1.47-3.48,4.39-4.69,8.08-4.65,7.29.09,14.58.03,22.45.03,0-9.28-.03-18.07,0-26.87.06-13.74,6.51-20.18,20.18-20.21,3.33,0,6.67,0,10,0,13.29,0,18.82,4.51,21.49,17.95,5.63,0,11.39-.03,17.15,0,11.66.08,18.62,6.99,18.64,18.7.05,27.66.06,55.33,0,82.99-.02,11.57-7.09,18.48-18.77,18.59-5.65.05-11.3,0-16.88,0-3.48,14.27-8.2,17.94-22.77,17.94-3.5,0-7,.04-10.5,0-11.37-.15-18.33-6.95-18.55-18.36-.16-8.33,0-16.66-.03-25,0-1.29-.21-2.59-.35-4.19h-68.8c1.23,1.38,2.06,2.45,3.03,3.39,29.8,28.76,62.03,54.54,96.06,78.1,5.44,3.77,8.5,3.89,13.72.25,55.58-38.83,107-82.23,148.59-136.27,20.24-26.3,36.91-54.6,45.39-87.09,7.91-30.29,6.54-59.67-8.65-87.7-2.52-4.64-1.24-9.09,2.77-11.1,4.08-2.06,7.92-.47,10.58,4.44,17.86,32.97,18.7,67.41,8.58,102.67-9.23,32.16-25.96,60.44-46.01,86.89-33.07,43.62-73.04,80.25-116.11,113.66-11.84,9.18-24.05,17.89-36.27,26.57-10.59,7.52-20.29,7.43-30.99.04-39.17-27.04-75.93-56.99-109.38-90.9-2.29-2.32-4.55-3.32-7.82-3.3-21.66.14-43.33.07-65,.07-1.8,0-3.61,0-5.96,0-.11,2.52-.28,4.6-.29,6.69-.03,7.5.12,15-.02,22.5-.22,11.65-7.22,18.52-18.86,18.67-3.33.04-6.67,0-10,0-14.85.02-19.27-3.33-23.1-17.95-4.26,0-8.73-.32-13.12.07-9.3.82-16.58-2.2-21.58-10.24v-100Zm71.69,50.5c0-19.16-.13-38.33.09-57.49.06-4.85-1.52-6.64-6.33-6.15-3.3.33-6.67.26-9.99.02-3.87-.28-5.39,1.15-5.3,5.11.2,7.99.14,16-.01,23.99-.09,4.85-3.02,7.87-7.19,7.94-4.17.07-7.25-2.9-7.66-7.63-.21-2.48-.14-5-.07-7.49.08-2.67-.96-4.03-3.78-3.99-4.5.08-9,.09-13.5-.02-3.12-.08-3.99,1.49-3.98,4.33.05,27.33.06,54.66,0,81.98,0,3.04,1.26,4.17,4.2,4.09,4-.12,8.01-.23,11.99.03,4.02.26,5.17-1.43,5.11-5.26-.18-11.66-.07-23.33-.03-34.99,0-1.82.02-3.7.48-5.44.96-3.67,3.54-5.68,7.34-5.46,3.94.23,6.48,2.41,7.01,6.47.19,1.48.12,2.99.12,4.49.01,17.33.18,34.66-.08,51.99-.07,4.92,1.6,6.62,6.34,6.14,2.97-.3,6.02-.32,8.99,0,4.84.52,6.38-1.39,6.32-6.19-.21-18.83-.09-37.66-.09-56.49Zm218.25,0c0-4.17,0-8.33,0-12.5,0-15.16-.15-30.32.07-45.48.07-4.44-1.42-6.04-5.77-5.66-3.14.28-6.36.33-9.48,0-4.88-.53-6.28,1.44-6.24,6.19.2,21.66.07,43.31.08,64.97,0,16.66.1,33.32-.04,49.98-.03,3.9,1.29,5.46,5.21,5.18,3.31-.24,6.69-.32,9.99,0,4.84.48,6.34-1.37,6.28-6.2-.24-18.82-.1-37.65-.09-56.48Zm36.17-.54h.03c0-13.31-.09-26.62.06-39.93.04-3.79-1.08-5.53-5.12-5.25-3.97.27-7.98.13-11.97.03-2.88-.07-4.21.97-4.21,4.06.07,27.45.07,54.9.01,82.36,0,3.13,1.46,4.03,4.3,3.95,3.82-.11,7.67-.2,11.47.07,4.06.28,5.57-1.13,5.5-5.35-.22-13.31-.08-26.62-.08-39.93Z"/>
  <path class="cls-1" d="m218.34,227.4c3.51-11.41,7.05-22.8,10.52-34.22,4.45-14.63,8.89-29.26,13.23-43.92,1.28-4.32,3.21-7.94,8.31-7.81,4.86.12,6.51,3.74,7.72,7.86,2.75,9.42,5.94,18.71,8.51,28.18,1.01,3.73,2.58,4.97,6.45,4.93,19.16-.19,38.33-.1,57.5-.06,1.98,0,4.57-.35,5.79.71,2.16,1.87,4.5,4.54,4.91,7.17.55,3.55-2.09,6.15-5.86,6.87-1.3.25-2.66.2-3.99.2-22,.02-44,.03-66,.02-7.15,0-8.61-1.11-10.72-7.87-1.36-4.35-2.73-8.7-5.04-13.12-2.23,7.24-4.48,14.47-6.69,21.71-5.63,18.45-11.25,36.91-16.87,55.37-.29.95-.65,1.89-.91,2.85-1.04,3.83-3.4,6.05-7.49,6.03-4.15-.02-6.31-2.58-7.43-6.23-4.76-15.59-9.48-31.18-14.22-46.77-2.32-7.64-4.86-15.21-6.9-22.93-.86-3.25-2.38-4.12-5.55-4.1-19.83.12-39.67.07-59.5.06-1.83,0-3.68.04-5.49-.22-4.06-.58-6.26-3.25-6.33-7.14-.07-3.65,1.86-6.38,5.67-7.18,1.61-.34,3.3-.42,4.95-.43,22.5-.03,45-.03,67.5-.01,7.25,0,8.92,1.24,11.05,8.21,5.3,17.32,10.56,34.66,15.84,51.99.34-.05.68-.09,1.02-.14Z"/>
</svg>